# This file uses centimeters as units for non-parametric coordinates.

mtllib objeto_07_aceite_02.mtl
g default
v 0.735023 0.109103 -0.238823
v 0.625248 0.109103 -0.454269
v 0.454270 0.109103 -0.625248
v 0.238824 0.109103 -0.735023
v 0.000001 0.109103 -0.772849
v -0.238822 0.109103 -0.735023
v -0.454269 0.109103 -0.625248
v -0.625246 0.109103 -0.454269
v -0.735021 0.109103 -0.238823
v -0.772848 0.109103 0.000000
v -0.735021 0.109103 0.238824
v -0.625246 0.109103 0.454269
v -0.454269 0.109103 0.625248
v -0.238822 0.109103 0.735023
v 0.000001 0.109103 0.772849
v 0.238824 0.109103 0.735023
v 0.454270 0.109103 0.625248
v 0.625248 0.109103 0.454269
v 0.735023 0.109103 0.238824
v 0.772850 0.109103 0.000000
v 0.735023 -0.109103 -0.238823
v 0.625248 -0.109103 -0.454269
v 0.454270 -0.109103 -0.625248
v 0.238824 -0.109103 -0.735023
v 0.000001 -0.109103 -0.772849
v -0.238822 -0.109103 -0.735023
v -0.454269 -0.109103 -0.625248
v -0.625246 -0.109103 -0.454269
v -0.735021 -0.109103 -0.238823
v -0.772848 -0.109103 0.000000
v -0.735021 -0.109103 0.238824
v -0.625246 -0.109103 0.454269
v -0.454269 -0.109103 0.625248
v -0.238822 -0.109103 0.735023
v 0.000001 -0.109103 0.772849
v 0.238824 -0.109103 0.735023
v 0.454270 -0.109103 0.625248
v 0.625248 -0.109103 0.454269
v 0.735023 -0.109103 0.238824
v 0.772850 -0.109103 0.000000
v 0.000001 0.109103 0.000000
v 0.000001 -0.109103 0.000000
v 0.386072 0.109103 0.147859
v 0.367512 0.109103 -0.034126
v 0.146935 0.109103 0.227135
v 0.680137 0.109103 0.346546
v 0.262627 0.109103 -0.506335
v 0.119414 0.109103 -0.367512
v 0.227134 0.109103 -0.312624
v 0.346547 0.109103 -0.680136
v -0.306387 0.109103 0.306387
v -0.066626 0.109103 0.476967
v -0.193591 0.109103 0.104863
v -0.539758 0.109103 0.539759
v -0.195756 0.109103 -0.356212
v -0.312624 0.085334 -0.141527
v -0.093405 0.109103 -0.150358
v -0.539758 0.109103 -0.539759
vt 0.373162 0.328380
vt 0.373162 0.677194
vt 0.384789 0.677194
vt 0.384789 0.328380
vt 0.396417 0.677194
vt 0.396417 0.328380
vt 0.408044 0.677194
vt 0.408044 0.328380
vt 0.419671 0.677194
vt 0.419671 0.328380
vt 0.431298 0.677194
vt 0.431298 0.328380
vt 0.442925 0.677194
vt 0.442925 0.328380
vt 0.454552 0.677194
vt 0.454552 0.328380
vt 0.466179 0.677194
vt 0.466179 0.328380
vt 0.477806 0.677194
vt 0.477806 0.328380
vt 0.489433 0.677194
vt 0.489433 0.328380
vt 0.501061 0.677194
vt 0.501061 0.328380
vt 0.512688 0.677194
vt 0.512688 0.328380
vt 0.524315 0.677194
vt 0.524315 0.328380
vt 0.535942 0.677194
vt 0.535942 0.328380
vt 0.547569 0.677194
vt 0.547569 0.328380
vt 0.559196 0.677194
vt 0.559196 0.328380
vt 0.570823 0.677194
vt 0.570823 0.328380
vt 0.582450 0.677194
vt 0.582450 0.328380
vt 0.594077 0.677194
vt 0.594077 0.328380
vt 0.605704 0.677194
vt 0.605704 0.328380
vt 0.803432 0.274356
vt 0.484685 0.505939
vt 0.859395 0.384189
vt 0.716269 0.187192
vt 0.484685 0.505939
vt 0.803432 0.274356
vt 0.606436 0.131230
vt 0.484685 0.505939
vt 0.716269 0.187192
vt 0.484685 0.111946
vt 0.484685 0.505939
vt 0.606436 0.131230
vt 0.362934 0.131230
vt 0.484685 0.505939
vt 0.484685 0.111946
vt 0.253102 0.187192
vt 0.484685 0.505939
vt 0.362934 0.131230
vt 0.165938 0.274356
vt 0.484685 0.505939
vt 0.253102 0.187192
vt 0.109975 0.384189
vt 0.484685 0.505939
vt 0.165938 0.274356
vt 0.090692 0.505939
vt 0.484685 0.505939
vt 0.109975 0.384189
vt 0.109975 0.627690
vt 0.484685 0.505939
vt 0.090692 0.505939
vt 0.165938 0.737523
vt 0.484685 0.505939
vt 0.109975 0.627690
vt 0.253102 0.824686
vt 0.484685 0.505939
vt 0.165938 0.737523
vt 0.362935 0.880649
vt 0.484685 0.505939
vt 0.253102 0.824686
vt 0.484685 0.899932
vt 0.484685 0.505939
vt 0.362935 0.880649
vt 0.606436 0.880649
vt 0.484685 0.505939
vt 0.484685 0.899932
vt 0.716268 0.824686
vt 0.484685 0.505939
vt 0.606436 0.880649
vt 0.803432 0.737523
vt 0.484685 0.505939
vt 0.716268 0.824686
vt 0.859395 0.627690
vt 0.484685 0.505939
vt 0.803432 0.737523
vt 0.878678 0.505939
vt 0.484685 0.505939
vt 0.859395 0.627690
vt 0.859395 0.384189
vt 0.484685 0.505939
vt 0.878678 0.505939
vt 0.627659 0.867445
vt 0.489434 0.822533
vt 0.607015 0.907961
vt 0.574862 0.940114
vt 0.534346 0.960758
vt 0.489434 0.967871
vt 0.444521 0.960758
vt 0.404005 0.940114
vt 0.371852 0.907961
vt 0.351208 0.867445
vt 0.344095 0.822533
vt 0.351208 0.777620
vt 0.371852 0.737104
vt 0.404005 0.704951
vt 0.444521 0.684307
vt 0.489434 0.677194
vt 0.534346 0.684307
vt 0.574862 0.704951
vt 0.607015 0.737104
vt 0.627659 0.777620
vt 0.634772 0.822533
vt 0.681501 0.606222
vt 0.672040 0.566815
vt 0.672040 0.566815
vt 0.644059 0.621731
vt 0.644059 0.621731
vt 0.831413 0.682606
vt 0.576637 0.328380
vt 0.584968 0.309124
vt 0.545560 0.318584
vt 0.545560 0.318584
vt 0.600477 0.346566
vt 0.600477 0.346566
vt 0.661352 0.159211
vt 0.402230 0.328380
vt 0.328491 0.662133
vt 0.368893 0.665313
vt 0.368893 0.665313
vt 0.325312 0.621731
vt 0.325312 0.621731
vt 0.209520 0.781104
vt 0.506874 0.328380
vt 0.328491 0.349745
vt 0.325312 0.390148
vt 0.325312 0.390148
vt 0.368893 0.346566
vt 0.368893 0.346566
vt 0.209520 0.230774
vt 0.448739 0.328380
vn 0.951056 0.000000 -0.309019
vn 0.951056 0.000000 -0.309018
vn 0.809018 0.000000 -0.587783
vn 0.809018 0.000000 -0.587783
vn 0.587785 0.000000 -0.809017
vn 0.587785 0.000000 -0.809017
vn 0.309016 0.000000 -0.951057
vn 0.453989 0.000000 -0.891007
vn 0.309017 0.000000 -0.951057
vn -0.000000 0.000000 -1.000000
vn -0.000000 0.000000 -1.000000
vn -0.309017 0.000000 -0.951056
vn -0.309017 0.000000 -0.951056
vn -0.587785 0.000003 -0.809017
vn -0.587785 0.000001 -0.809017
vn -0.809018 0.000001 -0.587784
vn -0.707109 0.000005 -0.707105
vn -0.809018 0.000000 -0.587784
vn -0.951056 0.000000 -0.309018
vn -0.951056 0.000000 -0.309018
vn -1.000000 0.000000 0.000000
vn -1.000000 0.000000 0.000000
vn -0.951056 0.000000 0.309019
vn -0.951056 0.000000 0.309019
vn -0.809018 0.000003 0.587784
vn -0.809018 0.000001 0.587784
vn -0.587785 0.000001 0.809017
vn -0.707109 0.000005 0.707104
vn -0.587785 0.000000 0.809017
vn -0.309016 0.000000 0.951057
vn -0.309017 0.000000 0.951056
vn 0.000001 0.000000 1.000000
vn -0.000001 0.000000 1.000000
vn 0.309017 0.000000 0.951056
vn 0.309017 0.000000 0.951057
vn 0.587785 0.000000 0.809017
vn 0.587786 0.000000 0.809017
vn 0.809018 -0.000010 0.587784
vn 0.809018 -0.000005 0.587783
vn 0.951056 -0.000005 0.309019
vn 0.891007 -0.000020 0.453990
vn 0.951056 0.000000 0.309018
vn 1.000000 0.000000 0.000000
vn 1.000000 0.000000 0.000000
vn 0.000000 1.000000 0.000000
vn -0.003473 0.999994 0.000787
vn 0.000000 1.000000 -0.000000
vn 0.000000 1.000000 0.000000
vn 0.000000 1.000000 0.000000
vn -0.000001 1.000000 -0.000002
vn -0.000000 1.000000 -0.000000
vn -0.000000 1.000000 0.000000
vn -0.000001 1.000000 -0.000002
vn 0.000000 1.000000 0.000000
vn 0.000000 1.000000 0.000000
vn -0.000000 1.000000 0.000001
vn -0.033085 0.999287 0.018182
vn -0.015628 0.997532 0.068453
vn 0.024865 0.999669 -0.006630
vn 0.021143 0.999286 -0.031301
vn -0.015628 0.997532 0.068453
vn 0.034153 0.998311 -0.047008
vn 0.000000 1.000000 0.000000
vn 0.000000 1.000000 0.000000
vn 0.000000 1.000000 -0.000000
vn 0.000000 1.000000 0.000000
vn 0.000000 1.000000 -0.000000
vn 0.000000 1.000000 -0.000001
vn 0.000000 1.000000 -0.000000
vn 0.000000 1.000000 -0.000000
vn 0.000000 1.000000 -0.000000
vn 0.000000 1.000000 0.000000
vn 0.000000 1.000000 0.000000
vn 0.000000 1.000000 -0.000000
vn 0.000000 1.000000 0.000000
vn 0.000000 1.000000 -0.000000
vn 0.000000 1.000000 0.000000
vn 0.000000 1.000000 0.000000
vn 0.000000 1.000000 0.000000
vn 0.000000 1.000000 0.000000
vn 0.000000 1.000000 -0.000000
vn 0.000000 -1.000000 -0.000000
vn 0.000000 -1.000000 -0.000000
vn 0.000000 -1.000000 0.000000
vn 0.000000 -1.000000 0.000000
vn 0.000000 -1.000000 0.000000
vn 0.000000 -1.000000 0.000000
vn 0.000000 -1.000000 0.000000
vn 0.000000 -1.000000 0.000000
vn 0.000000 -1.000000 0.000000
vn 0.000000 -1.000000 -0.000000
vn 0.000000 -1.000000 0.000000
vn 0.000000 -1.000000 0.000000
vn 0.000000 -1.000000 -0.000000
vn 0.000000 -1.000000 -0.000000
vn 0.000000 -1.000000 0.000000
vn 0.000000 -1.000000 0.000000
vn 0.000000 -1.000000 0.000000
vn 0.000000 -1.000000 -0.000000
vn 0.000000 -1.000000 -0.000000
vn 0.000000 -1.000000 0.000000
vn 0.000000 -1.000000 -0.000000
vn 0.000000 1.000000 -0.000000
vn 0.000000 1.000000 0.000001
vn 0.000000 1.000000 0.000001
vn -0.000000 1.000000 0.000000
vn 0.000001 1.000000 0.000001
vn 0.000001 1.000000 0.000001
vn 0.000000 1.000000 0.000000
vn 0.000000 1.000000 -0.000000
vn 0.000000 1.000000 -0.000000
vn -0.105308 0.992754 0.057873
vn -0.000004 1.000000 0.000012
vn -0.000004 1.000000 0.000012
s 1
g pasted__polySurface119 pasted__pCone2 group
usemtl pasted__phong22SG
f 1/1/1 21/2/2 2/4/3
f 2/4/3 21/2/2 22/3/4
f 2/4/3 22/3/4 3/6/5
f 3/6/5 22/3/4 23/5/6
f 3/6/5 23/5/6 4/8/7 50/137/8
f 4/8/7 23/5/6 24/7/9
f 4/8/7 24/7/9 5/10/10
f 5/10/10 24/7/9 25/9/11
f 5/10/10 25/9/11 6/12/12
f 6/12/12 25/9/11 26/11/13
f 6/12/12 26/11/13 7/14/14
f 7/14/14 26/11/13 27/13/15
f 7/14/14 27/13/15 8/16/16 58/151/17
f 8/16/16 27/13/15 28/15/18
f 8/16/16 28/15/18 9/18/19
f 9/18/19 28/15/18 29/17/20
f 9/18/19 29/17/20 10/20/21
f 10/20/21 29/17/20 30/19/22
f 10/20/21 30/19/22 11/22/23
f 11/22/23 30/19/22 31/21/24
f 11/22/23 31/21/24 12/24/25
f 12/24/25 31/21/24 32/23/26
f 12/24/25 32/23/26 13/26/27 54/144/28
f 13/26/27 32/23/26 33/25/29
f 13/26/27 33/25/29 14/28/30
f 14/28/30 33/25/29 34/27/31
f 14/28/30 34/27/31 15/30/32
f 15/30/32 34/27/31 35/29/33
f 15/30/32 35/29/33 16/32/34
f 16/32/34 35/29/33 36/31/35
f 16/32/34 36/31/35 17/34/36
f 17/34/36 36/31/35 37/33/37
f 17/34/36 37/33/37 18/36/38
f 18/36/38 37/33/37 38/35/39
f 18/36/38 38/35/39 19/38/40 46/130/41
f 19/38/40 38/35/39 39/37/42
f 19/38/40 39/37/42 20/40/43
f 20/40/43 39/37/42 40/39/44
f 20/40/43 40/39/44 1/42/1
f 1/42/1 40/39/44 21/41/2
s 2
f 2/43/45 41/44/46 1/45/47
f 3/46/48 49/135/49 41/47/46 2/48/45
f 50/136/50 4/49/51 48/133/52 47/131/53
f 5/52/54 41/53/46 48/132/52 4/54/51
f 6/55/55 41/56/46 5/57/54
f 7/58/56 57/149/57 41/59/46 6/60/55
f 58/150/58 8/61/59 56/147/60 55/145/61
f 9/64/62 41/65/46 56/146/60 8/66/59
f 10/67/63 41/68/46 9/69/62
f 11/70/64 41/71/46 10/72/63
f 12/73/65 53/142/66 41/74/46 11/75/64
f 54/143/67 13/76/68 52/140/69 51/138/70
f 14/79/71 41/80/46 52/139/69 13/81/68
f 15/82/72 41/83/46 14/84/71
f 16/85/73 41/86/46 15/87/72
f 17/88/74 41/89/46 16/90/73
f 18/91/75 45/128/76 41/92/46 17/93/74
f 46/129/77 19/94/78 44/126/79 43/124/80
f 20/97/81 41/98/46 44/125/79 19/99/78
f 1/100/47 41/101/46 20/102/81
s 7
f 21/103/82 42/104/83 22/105/84
f 22/105/84 42/104/83 23/106/85
f 23/106/85 42/104/83 24/107/86
f 24/107/86 42/104/83 25/108/87
f 25/108/87 42/104/83 26/109/88
f 26/109/88 42/104/83 27/110/89
f 27/110/89 42/104/83 28/111/90
f 28/111/90 42/104/83 29/112/91
f 29/112/91 42/104/83 30/113/92
f 30/113/92 42/104/83 31/114/93
f 31/114/93 42/104/83 32/115/94
f 32/115/94 42/104/83 33/116/95
f 33/116/95 42/104/83 34/117/96
f 34/117/96 42/104/83 35/118/97
f 35/118/97 42/104/83 36/119/98
f 36/119/98 42/104/83 37/120/99
f 37/120/99 42/104/83 38/121/100
f 38/121/100 42/104/83 39/122/101
f 39/122/101 42/104/83 40/123/102
f 40/123/102 42/104/83 21/103/82
s 2
f 44/126/79 41/95/46 45/127/76 43/124/103
f 45/127/76 18/96/75 46/129/104 43/124/105
f 48/133/52 41/50/46 49/134/49 47/131/106
f 49/134/49 3/51/48 50/136/107 47/131/108
f 52/140/69 41/77/46 53/141/66 51/138/109
f 53/141/66 12/78/65 54/143/110 51/138/111
f 56/147/60 41/62/46 57/148/57 55/145/112
f 57/148/57 7/63/56 58/150/113 55/145/114
