# This file uses centimeters as units for non-parametric coordinates.

mtllib objeto_07_humo.mtl
g default
v 0.005573 0.516134 0.025874
v -0.016567 0.398939 0.000002
v 0.021231 0.599003 -0.018295
v 0.027718 0.633329 0.000002
v -0.008278 0.382315 0.000002
v 0.039047 0.518529 -0.018295
v 0.047169 0.541899 0.000002
v 0.019444 0.462107 0.025874
v -0.007206 0.449692 -0.000001
v 0.031225 0.252854 -0.018295
v 0.037819 0.219082 -0.000000
v 0.015307 0.334387 0.025874
v -0.040234 0.264238 -0.000001
v 0.007959 0.136337 -0.018295
v 0.016228 0.114393 -0.000000
v -0.012003 0.189315 0.025874
v -0.050144 0.061399 -0.000000
v 0.004070 0.067798 -0.018295
v 0.013371 0.068896 -0.000003
v -0.018385 0.065148 0.025874
v -0.011667 -0.032910 0.025874
v -0.040165 -0.105102 -0.000001
v 0.008484 0.018139 -0.018295
v 0.016831 0.039283 -0.000000
v -0.014347 -0.318787 -0.000001
v 0.038189 -0.249684 -0.018295
v 0.047203 -0.237828 -0.000003
v 0.016428 -0.278307 0.025874
v -0.014252 -0.344383 0.000002
v 0.021645 -0.553513 -0.018295
v 0.027802 -0.589395 -0.000003
v 0.006777 -0.466888 0.025874
v 0.000832 -0.480133 0.025874
v -0.004764 -0.319250 -0.000003
v 0.004789 -0.593895 -0.018295
v 0.006428 -0.641017 -0.000000
vt 0.000000 0.000000
vt 0.212505 0.000000
vt 0.212505 0.076036
vt 0.531261 0.000000
vt 0.531261 0.076036
vt 0.637514 0.000000
vt 0.637514 0.076036
vt 0.850018 0.000000
vt 0.000000 0.076036
vt 0.850018 0.076036
vt 0.212505 0.186017
vt 0.531261 0.186017
vt 0.637514 0.186017
vt 0.000000 0.186017
vt 0.850018 0.186017
vt 0.212505 0.358421
vt 0.531261 0.358421
vt 0.637514 0.358421
vt 0.000000 0.358421
vt 0.850018 0.358421
vt 0.212505 0.468698
vt 0.531261 0.468698
vt 0.637514 0.468698
vt 0.000000 0.468698
vt 0.850018 0.468698
vt 0.000000 0.557010
vt 0.212505 0.557010
vt 0.531261 0.557010
vt 0.637514 0.557010
vt 0.850018 0.557010
vt 0.212505 0.798947
vt 0.531261 0.798947
vt 0.637514 0.798947
vt 0.000000 0.798947
vt 0.850018 0.798947
vt 0.212505 0.971693
vt 0.531261 0.971693
vt 0.637514 0.971693
vt 0.000000 0.971693
vt 0.850018 0.971693
vt 0.000000 1.000000
vt 0.212505 1.000000
vt 0.531261 1.000000
vt 0.637514 1.000000
vt 0.850018 1.000000
vn -0.416886 -0.130745 0.899506
vn -0.416886 -0.130745 0.899506
vn -0.416886 -0.130745 0.899506
vn -0.416886 -0.130745 0.899506
vn -0.535478 -0.126147 -0.835075
vn -0.147176 -0.034492 -0.988509
vn 0.052601 0.008033 -0.998583
vn -0.348388 -0.129044 -0.928425
vn -0.775109 -0.177122 0.606493
vn -0.974871 -0.222769 0.000000
vn -0.974871 -0.222769 0.000000
vn -0.775109 -0.177122 0.606493
vn 0.205882 0.050325 0.977282
vn -0.147176 -0.034492 0.988509
vn 0.052600 0.008032 0.998583
vn 0.535758 0.118631 0.835996
vn 0.239804 0.004444 0.970811
vn -0.248584 -0.051803 0.967224
vn -0.409755 0.082154 0.908489
vn 0.207819 -0.008841 0.978127
vn -0.248583 -0.051803 -0.967224
vn 0.239804 0.004444 -0.970811
vn 0.207819 -0.008841 -0.978127
vn -0.409754 0.082154 -0.908489
vn 0.765093 0.022665 -0.643521
vn 0.999458 0.032926 0.000000
vn 0.997716 -0.067551 0.000000
vn 0.757545 -0.048992 -0.650942
vn 0.765093 0.022665 0.643521
vn 0.239804 0.004444 0.970811
vn 0.207819 -0.008841 0.978127
vn 0.757545 -0.048992 0.650942
vn -0.013299 0.002320 0.999909
vn -0.495143 0.104847 0.862462
vn -0.569835 0.095211 0.816225
vn -0.063298 0.010540 0.997939
vn -0.495143 0.104847 -0.862462
vn -0.013299 0.002320 -0.999909
vn -0.063297 0.010540 -0.997939
vn -0.569835 0.095211 -0.816225
vn 0.467852 -0.101157 -0.877999
vn 0.977438 -0.211222 0.000001
vn 0.986117 -0.166051 0.000001
vn 0.451511 -0.075893 -0.889032
vn 0.467852 -0.101157 0.877999
vn -0.013299 0.002320 0.999909
vn -0.063298 0.010540 0.997939
vn 0.451511 -0.075893 0.889032
vn -0.081480 0.008613 0.996638
vn -0.628546 0.068368 0.774762
vn -0.672283 0.033179 0.739550
vn -0.098237 0.004721 0.995152
vn -0.628546 0.068368 -0.774762
vn -0.081480 0.008613 -0.996638
vn -0.098236 0.004721 -0.995152
vn -0.672283 0.033179 -0.739550
vn 0.480489 -0.058788 -0.875028
vn 0.991980 -0.126396 0.000000
vn 0.998217 -0.059684 0.000001
vn 0.514745 -0.029176 -0.856847
vn 0.480489 -0.058788 0.875028
vn -0.081480 0.008613 0.996638
vn -0.098237 0.004721 0.995152
vn 0.514745 -0.029176 0.856847
vn -0.121380 -0.003754 0.992599
vn -0.692625 -0.019427 0.721036
vn -0.633623 -0.054694 0.771706
vn -0.052180 -0.003427 0.998632
vn -0.692625 -0.019427 -0.721036
vn -0.121380 -0.003754 -0.992599
vn -0.052180 -0.003427 -0.998632
vn -0.633623 -0.054694 -0.771706
vn 0.498417 0.020062 -0.866705
vn 0.998888 0.047136 0.000000
vn 0.994124 0.108252 0.000000
vn 0.547053 0.057612 -0.835113
vn 0.498417 0.020062 0.866705
vn -0.121380 -0.003754 0.992599
vn -0.052180 -0.003427 0.998632
vn 0.547053 0.057612 0.835113
vn -0.052180 -0.003427 0.998632
vn -0.633623 -0.054694 0.771706
vn -0.568623 -0.067560 0.819819
vn 0.010772 0.000668 0.999942
vn -0.633623 -0.054694 -0.771706
vn -0.052180 -0.003427 -0.998632
vn 0.010773 0.000668 -0.999942
vn -0.568623 -0.067560 -0.819819
vn 0.547053 0.057612 -0.835113
vn 0.994124 0.108252 0.000000
vn 0.993976 0.109594 0.000001
vn 0.589090 0.065330 -0.805422
vn 0.547053 0.057612 0.835113
vn -0.052180 -0.003427 0.998632
vn 0.010772 0.000668 0.999942
vn 0.589090 0.065330 0.805422
vn 0.185952 -0.007616 0.982529
vn -0.459099 -0.017569 0.888211
vn -0.582333 0.054241 0.811139
vn 0.109710 -0.008423 0.993928
vn -0.459099 -0.017569 -0.888211
vn 0.185953 -0.007616 -0.982529
vn 0.109710 -0.008423 -0.993928
vn -0.582334 0.054241 -0.811138
vn 0.719795 -0.021382 -0.693857
vn 0.999550 -0.030002 0.000000
vn 0.995870 -0.090786 0.000000
vn 0.673205 -0.059982 -0.737020
vn 0.719795 -0.021382 0.693857
vn 0.185952 -0.007616 0.982529
vn 0.109710 -0.008423 0.993928
vn 0.673204 -0.059982 0.737020
vn 0.096843 -0.025330 0.994977
vn -0.530954 0.054503 0.845646
vn 0.053223 0.080284 0.995350
vn 0.141767 -0.057779 0.988212
vn -0.530954 0.054503 -0.845646
vn 0.096843 -0.025330 -0.994977
vn 0.141767 -0.057779 -0.988212
vn 0.053219 0.080283 -0.995350
vn 0.550600 -0.121558 -0.825871
vn 0.975239 -0.221156 0.000001
vn 0.923449 -0.383722 0.000002
vn 0.426720 -0.177979 -0.886698
vn 0.550600 -0.121558 0.825871
vn 0.096843 -0.025330 0.994977
vn 0.141767 -0.057779 0.988212
vn 0.426720 -0.177979 0.886698
s off
g objeto07_estanteria1:pasted__sweep1group
usemtl objeto07_estanteria1:phong23SG
f 1/1/1 2/2/2 5/3/3 8/9/4
f 2/2/5 3/4/6 6/5/7 5/3/8
f 3/4/9 4/6/10 7/7/11 6/5/12
f 4/6/13 1/8/14 8/10/15 7/7/16
f 8/9/17 5/3/18 9/11/19 12/14/20
f 5/3/21 6/5/22 10/12/23 9/11/24
f 6/5/25 7/7/26 11/13/27 10/12/28
f 7/7/29 8/10/30 12/15/31 11/13/32
f 12/14/33 9/11/34 13/16/35 16/19/36
f 9/11/37 10/12/38 14/17/39 13/16/40
f 10/12/41 11/13/42 15/18/43 14/17/44
f 11/13/45 12/15/46 16/20/47 15/18/48
f 16/19/49 13/16/50 17/21/51 20/24/52
f 13/16/53 14/17/54 18/22/55 17/21/56
f 14/17/57 15/18/58 19/23/59 18/22/60
f 15/18/61 16/20/62 20/25/63 19/23/64
f 20/24/65 17/21/66 22/27/67 21/26/68
f 17/21/69 18/22/70 23/28/71 22/27/72
f 18/22/73 19/23/74 24/29/75 23/28/76
f 19/23/77 20/25/78 21/30/79 24/29/80
f 21/26/81 22/27/82 25/31/83 28/34/84
f 22/27/85 23/28/86 26/32/87 25/31/88
f 23/28/89 24/29/90 27/33/91 26/32/92
f 24/29/93 21/30/94 28/35/95 27/33/96
f 28/34/97 25/31/98 29/36/99 32/39/100
f 25/31/101 26/32/102 30/37/103 29/36/104
f 26/32/105 27/33/106 31/38/107 30/37/108
f 27/33/109 28/35/110 32/40/111 31/38/112
f 32/39/113 29/36/114 34/42/115 33/41/116
f 29/36/117 30/37/118 35/43/119 34/42/120
f 30/37/121 31/38/122 36/44/123 35/43/124
f 31/38/125 32/40/126 33/45/127 36/44/128
